<svg xmlns="http://www.w3.org/2000/svg" viewBox="0 0 1619.4 397.91"><defs><style>.cls-1{fill:#fff;}.cls-2{fill:#fff100;}</style></defs><g id="Layer_2" data-name="Layer 2"><g id="Layer_1-2" data-name="Layer 1"><path class="cls-1" d="M829,253.41h53.2l4.42-13H823.16a7.83,7.83,0,0,0-3.11.78,20.45,20.45,0,0,0-6.52,4.65,8,8,0,0,0-1.74,2.69l-5.52,16.22a11.8,11.8,0,0,0-.79,5,5.86,5.86,0,0,0,1.36,3.28,6.12,6.12,0,0,0,2.9,1.82,12.85,12.85,0,0,0,3.83.55h42.07l1,1.42-2.33,6.83-2,1.75H799.2l-4.43,13H858.1a8.54,8.54,0,0,0,3.31-.78,18.49,18.49,0,0,0,3.47-2,20.21,20.21,0,0,0,3-2.67,7.72,7.72,0,0,0,1.78-2.77l5.72-16.77a12.06,12.06,0,0,0,.81-5.16,6,6,0,0,0-1.39-3.37,6.31,6.31,0,0,0-3-1.89,13.63,13.63,0,0,0-3.93-.56h-42.1l-1-1,2.46-7.22Z"/><path class="cls-1" d="M1016.39,245.9a8.22,8.22,0,0,0-1.19-2.67,7.2,7.2,0,0,0-2.49-2.25,5.08,5.08,0,0,0-2.42-.57H946.81l-4.42,13h53l1.23,1.14-3,8.73-2,1.13H938.6l-11.58,34h17.64l6.82-20h43.43a16.85,16.85,0,0,0,4.34-.6,15.45,15.45,0,0,0,4.3-1.93,15.09,15.09,0,0,0,3.71-3.47,17.11,17.11,0,0,0,2.71-5.15l6.32-18.59A5,5,0,0,0,1016.39,245.9Z"/><path class="cls-1" d="M1147.94,246.36a7.18,7.18,0,0,0-2-3.3,9.37,9.37,0,0,0-3.61-2,15.35,15.35,0,0,0-4.52-.66h-45a22.56,22.56,0,0,0-5.14.61,20.53,20.53,0,0,0-4.92,1.87,15.22,15.22,0,0,0-4.15,3.2,13.13,13.13,0,0,0-2.75,4.74L1063.18,288a8.71,8.71,0,0,0-.48,4.75,6,6,0,0,0,2,3.2,9.58,9.58,0,0,0,3.66,1.85,16.88,16.88,0,0,0,4.73.6h45a19.92,19.92,0,0,0,4.94-.65,19.36,19.36,0,0,0,5-2,18.6,18.6,0,0,0,4.28-3.3A11.73,11.73,0,0,0,1135,288l12.66-37.18A7.3,7.3,0,0,0,1147.94,246.36Zm-29.5,38.05h-36.7l10.55-31H1129Z"/><path class="cls-1" d="M1278.74,245.85a7.77,7.77,0,0,0-1.21-2.65,7.52,7.52,0,0,0-2.14-2,4.85,4.85,0,0,0-2.64-.8h-61.19l-4.42,13h50.16a3.69,3.69,0,0,1,.66.48,1.16,1.16,0,0,1,.37.66l-3,8.73c-.22.44-.89.83-2,1.13h-50l-11.57,34h17.9l6.8-20h10.72l17,20H1268l-15.69-20.25a31.34,31.34,0,0,0,6.08-.61,24.62,24.62,0,0,0,5.9-1.95,18.61,18.61,0,0,0,4.93-3.49,12.83,12.83,0,0,0,3.17-5.1l6.26-18.41A4.75,4.75,0,0,0,1278.74,245.85Z"/><path class="cls-1" d="M1342.74,240.41l-4.42,13h21.91l-15.32,45h17.51l15.33-45h22.62l4.44-13Z"/><path class="cls-1" d="M1480.65,253.41h53.19l4.42-13h-63.49a8,8,0,0,0-3.12.78,19.37,19.37,0,0,0-3.48,2,19.14,19.14,0,0,0-3,2.64,7.78,7.78,0,0,0-1.73,2.69l-5.53,16.22a11.93,11.93,0,0,0-.78,5,5.85,5.85,0,0,0,1.35,3.28,6.17,6.17,0,0,0,2.9,1.82,12.9,12.9,0,0,0,3.83.55h42.07l1,1.42-2.33,6.83-2,1.75h-53.09l-4.43,13h63.34a8.5,8.5,0,0,0,3.3-.78,18.49,18.49,0,0,0,3.47-2,20.21,20.21,0,0,0,3-2.67,7.72,7.72,0,0,0,1.78-2.77l5.73-16.77a12.38,12.38,0,0,0,.81-5.16,6.15,6.15,0,0,0-1.4-3.37,6.33,6.33,0,0,0-3-1.89,13.69,13.69,0,0,0-3.94-.56h-42.1l-1.05-1,2.47-7.22Z"/><path class="cls-2" d="M1089.84,193.41h4.38q22.44,0,40.46-7.54t27.94-15.63a113.27,113.27,0,0,0,17.19-16.38q6.87-8.27,9.11-13.42L1219.14,53c1-3.44,5.5-13.49,5.47-19.79a34.89,34.89,0,0,0-4.21-16.71,30.43,30.43,0,0,0-17.69-15.12c-7.52-2.42-22.74-1-37.69-1H895.67l-25.91,68h252.47c4.44,0,6.75,3.64,5.13,8.08l-13.77,37.85c-1.62,4.44-6.58,8.07-11,8.07H850.06l-34.17,99h83.48l11.08-28h179.39Z"/><path class="cls-2" d="M1484.63,193.41H1489q22.44,0,40.45-7.54t28-15.63a112.7,112.7,0,0,0,17.18-16.38q6.89-8.27,9.12-13.42L1613.93,53c1-3.44,5.51-13.49,5.47-19.79a34.76,34.76,0,0,0-4.2-16.71,30.46,30.46,0,0,0-17.69-15.12c-7.52-2.42-22.74-1-37.7-1H1290.47l-25.91,68H1517c4.45,0,6.76,3.64,5.14,8.08l-13.77,37.85c-1.62,4.44-6.58,8.07-11,8.07H1244.86l-34.18,99h83.48l11.08-28h179.39Z"/><polygon class="cls-2" points="537.47 0.41 513.16 68.42 820.44 68.42 844.75 0.41 537.47 0.41"/><polygon class="cls-2" points="427.98 298.23 428.12 298.42 427.9 298.42 427.98 298.23"/><polygon class="cls-2" points="759.6 235.41 736.67 298.42 443.39 298.42 432.87 283.85 450.5 235.41 450.87 235.41 468.99 185.48 491.93 122.42 696.41 122.42 673.49 185.41 556.04 185.41 537.88 235.41 759.6 235.41"/><polygon class="cls-2" points="414.79 297.99 437.47 329.42 323.57 329.74 224.37 183.75 332.68 60.41 218.48 60.66 181.3 116.42 246.48 115.73 0 397.91 98.82 186.31 51.09 184.26 142.19 1.42 480.57 0.49 333.4 185.21 414.66 297.8 414.79 297.99"/></g></g></svg>